<svg width="51" height="51" viewBox="0 0 51 51" fill="none" xmlns="http://www.w3.org/2000/svg">
<path opacity="0.15" d="M24.7632 51C32.8388 51 39.3854 50.2397 39.3854 49.3017C39.3854 48.3638 32.8388 47.6035 24.7632 47.6035C16.6876 47.6035 10.141 48.3638 10.141 49.3017C10.141 50.2397 16.6876 51 24.7632 51Z" fill="#45413C"/>
<path d="M16.5253 25.0017C21.2687 23.6957 24.1011 18.6177 22.8517 13.6596C21.6024 8.70145 16.7443 5.74075 12.001 7.04668C7.2577 8.35262 4.42528 13.4306 5.67463 18.3888C6.92398 23.3469 11.782 26.3076 16.5253 25.0017Z" fill="#FFE500"/>
<path d="M12.8488 6.84503C16.9647 6.16572 20.9722 8.88295 22.0554 13.1852C23.2468 17.8272 20.539 22.4691 16.2065 23.7145C11.7657 24.9599 7.32484 22.1294 6.13341 17.6007C5.05028 13.2985 7.32485 8.88295 11.2241 7.41112C6.99991 8.99617 4.50871 13.8645 5.70015 18.5065C6.99991 23.4881 11.7657 26.4317 16.5314 25.0731C21.2972 23.7145 24.1133 18.7329 22.8136 13.7513C21.7304 8.99617 17.2896 6.05251 12.8488 6.84503Z" fill="#EBCB00"/>
<path d="M16.5253 25.0017C21.2687 23.6957 24.1011 18.6177 22.8517 13.6596C21.6024 8.70145 16.7443 5.74075 12.001 7.04668C7.2577 8.35262 4.42528 13.4306 5.67463 18.3888C6.92398 23.3469 11.782 26.3076 16.5253 25.0017Z" stroke="#45413C" stroke-miterlimit="10" stroke-linecap="round" stroke-linejoin="round"/>
<path d="M12.6856 9.65582C14.0739 9.2736 15.1252 8.66964 15.0338 8.30685C14.9424 7.94406 13.7428 7.95982 12.3545 8.34204C10.9663 8.72426 9.91493 9.32822 10.0063 9.69101C10.0978 10.0538 11.2973 10.038 12.6856 9.65582Z" fill="#FFF48C"/>
<path d="M11.7657 1.75023C11.6574 1.18414 11.1158 0.844491 10.5742 1.07093C10.0327 1.29736 9.70773 1.75023 9.81604 2.31632L10.3576 4.35424C10.4659 4.92033 11.0075 5.25999 11.549 5.03355C12.0906 4.92033 12.4155 4.35424 12.1989 3.78816L11.7657 1.75023Z" fill="#FFE500" stroke="#45413C" stroke-miterlimit="10" stroke-linecap="round" stroke-linejoin="round"/>
<path d="M2.88394 7.86401C2.45069 7.52435 1.80081 7.75079 1.58419 8.20366C1.25925 8.65653 1.47587 9.33584 1.90912 9.56227L3.64213 10.5812C4.07538 10.9209 4.72525 10.6945 4.94188 10.2416C5.26682 9.78871 5.05019 9.1094 4.61694 8.88297L2.88394 7.86401Z" fill="#FFE500" stroke="#45413C" stroke-miterlimit="10" stroke-linecap="round" stroke-linejoin="round"/>
<path d="M0.71773 18.6197C0.176167 18.7329 -0.148772 19.299 0.0678538 19.8651C0.284479 20.4312 0.71773 20.7708 1.25929 20.5444L3.20892 19.9783C3.75049 19.8651 4.07542 19.299 3.8588 18.7329C3.83649 18.5985 3.78545 18.4712 3.70946 18.3603C3.63348 18.2494 3.53452 18.1579 3.41998 18.0926C3.30543 18.0273 3.17825 17.9899 3.04793 17.9831C2.91761 17.9764 2.78752 18.0005 2.66736 18.0536L0.71773 18.6197Z" fill="#FFE500" stroke="#45413C" stroke-miterlimit="10" stroke-linecap="round" stroke-linejoin="round"/>
<path d="M6.45833 27.9036C6.13339 28.3564 6.35002 29.0358 6.78327 29.2622C7.21652 29.6018 7.8664 29.3754 8.08302 28.9225L9.05784 27.111C9.38277 26.6582 9.16615 25.9789 8.7329 25.7524C8.29965 25.4128 7.64977 25.6392 7.43315 26.0921L6.45833 27.9036Z" fill="#FFE500" stroke="#45413C" stroke-miterlimit="10" stroke-linecap="round" stroke-linejoin="round"/>
<path d="M16.8564 30.1679C16.9647 30.734 17.5063 31.0737 18.0478 30.8472C18.5894 30.734 18.9143 30.1679 18.6977 29.6018L18.1561 27.5639C18.1338 27.4295 18.0828 27.3021 18.0068 27.1913C17.9308 27.0804 17.8319 26.9889 17.7173 26.9236C17.6028 26.8583 17.4756 26.8208 17.3453 26.8141C17.2149 26.8073 17.0849 26.8314 16.9647 26.8846C16.5314 27.111 16.2065 27.6771 16.3148 28.2432L16.8564 30.1679Z" fill="#FFE500" stroke="#45413C" stroke-miterlimit="10" stroke-linecap="round" stroke-linejoin="round"/>
<path d="M25.738 24.1674C26.1712 24.507 26.8211 24.2806 27.0377 23.8277C27.3626 23.3749 27.146 22.6956 26.7128 22.4691L24.9798 21.3369C24.5465 20.9973 23.8966 21.2237 23.68 21.6766C23.3551 22.1295 23.5717 22.8088 24.005 23.0352L25.738 24.1674Z" fill="#FFE500" stroke="#45413C" stroke-miterlimit="10" stroke-linecap="round" stroke-linejoin="round"/>
<path d="M27.9042 13.2984C28.4458 13.1852 28.7707 12.6191 28.5541 12.053C28.5318 11.9187 28.4808 11.7913 28.4048 11.6804C28.3288 11.5695 28.2298 11.478 28.1153 11.4127C28.0007 11.3474 27.8736 11.31 27.7432 11.3032C27.6129 11.2965 27.4828 11.3206 27.3627 11.3737L25.413 11.9398C24.8715 12.053 24.5465 12.6191 24.7632 13.1852C24.8715 13.7513 25.413 14.091 25.9546 13.8645L27.9042 13.2984Z" fill="#FFE500" stroke="#45413C" stroke-miterlimit="10" stroke-linecap="round" stroke-linejoin="round"/>
<path d="M22.0553 4.01458C22.3802 3.56171 22.1636 2.8824 21.7303 2.65597C21.2971 2.31631 20.6472 2.54275 20.4306 2.99562L19.4558 4.80711C19.1308 5.25998 19.3475 5.93929 19.7807 6.16572C20.214 6.50538 20.8638 6.27894 21.0805 5.82607L22.0553 4.01458Z" fill="#FFE500" stroke="#45413C" stroke-miterlimit="10" stroke-linecap="round" stroke-linejoin="round"/>
<path d="M9.00941 18.1555C9.53002 18.0122 9.87795 17.6019 9.78653 17.2391C9.69512 16.8763 9.19897 16.6984 8.67836 16.8418C8.15776 16.9851 7.80983 17.3954 7.90124 17.7582C7.99266 18.121 8.4888 18.2989 9.00941 18.1555Z" fill="#FFAA54"/>
<path d="M17.1812 16.9214C17.6145 16.8082 18.0477 17.1479 18.0477 17.6007C18.0477 19.1858 17.0729 20.5444 15.5566 20.9973C14.0402 21.4501 12.5238 20.6576 11.8739 19.299C11.6573 18.9593 11.8739 18.3933 12.3072 18.28L17.1812 16.9214Z" fill="#FFB0CA" stroke="#45413C" stroke-miterlimit="10" stroke-linecap="round" stroke-linejoin="round"/>
<path d="M15.5566 20.9973C16.5314 20.7708 17.3979 19.9783 17.7229 19.0726C16.9647 18.8461 15.9899 18.7329 15.015 19.0726C14.0402 19.4122 13.1737 19.8651 12.7405 20.4312C13.4987 20.9973 14.4735 21.2237 15.5566 20.9973Z" fill="#FF87AF" stroke="#45413C" stroke-miterlimit="10" stroke-linecap="round" stroke-linejoin="round"/>
<path d="M8.19128 16.2421C8.08297 15.676 8.40791 15.11 8.84116 14.9967C9.38272 14.8835 9.92428 15.2232 10.0326 15.676" stroke="#45413C" stroke-miterlimit="10" stroke-linecap="round" stroke-linejoin="round"/>
<path d="M19.8482 15.2059C20.3688 15.0626 20.7167 14.6523 20.6253 14.2895C20.5339 13.9267 20.0377 13.7488 19.5171 13.8921C18.9965 14.0354 18.6486 14.4457 18.74 14.8085C18.8314 15.1713 19.3275 15.3492 19.8482 15.2059Z" fill="#FFAA54"/>
<path d="M19.6724 13.072C19.6501 12.9376 19.599 12.8103 19.523 12.6994C19.447 12.5885 19.3481 12.497 19.2335 12.4317C19.119 12.3664 18.9918 12.329 18.8615 12.3222C18.7312 12.3155 18.6011 12.3396 18.4809 12.3927C17.9394 12.5059 17.6144 13.072 17.831 13.6381" stroke="#45413C" stroke-miterlimit="10" stroke-linecap="round" stroke-linejoin="round"/>
<path d="M50 28.6961C50 26.7714 48.7002 25.2995 47.0755 24.8467V24.2806C47.0755 22.1294 45.4508 20.4312 43.3929 20.4312C42.6347 20.4312 41.8765 20.6576 41.335 21.1105V20.884C41.335 18.7329 39.7103 17.0346 37.6523 17.0346C36.6775 17.0346 35.7027 17.4875 35.0528 18.1668C34.6196 16.4685 33.2115 15.3364 31.4785 15.3364C29.7455 15.3364 28.3374 16.5818 27.9042 18.1668C27.2543 17.4875 26.2795 17.0346 25.3047 17.0346C23.2467 17.0346 21.622 18.7329 21.622 20.884V21.1105C20.9722 20.6576 20.3223 20.4312 19.5641 20.4312C17.5062 20.4312 15.8815 22.1294 15.8815 24.2806V24.8467C14.1485 25.1863 12.957 26.7714 12.957 28.6961C12.957 30.6208 14.3651 32.2058 16.0981 32.5455C15.9898 32.9984 15.8815 33.4512 15.8815 33.9041C15.8815 36.0552 17.5062 37.7535 19.5641 37.7535C20.3223 37.7535 21.0805 37.5271 21.622 37.0742V37.3006C21.622 39.4518 23.2467 41.15 25.3047 41.15C26.4961 41.15 27.4709 40.584 28.1208 39.7914C28.6624 41.15 29.9621 42.0558 31.4785 42.0558C32.9949 42.0558 34.2946 41.15 34.8362 39.7914C35.4861 40.584 36.5692 41.15 37.6523 41.15C39.7103 41.15 41.335 39.4518 41.335 37.3006V37.0742C41.9848 37.5271 42.6347 37.7535 43.3929 37.7535C45.4508 37.7535 47.0755 36.0552 47.0755 33.9041C47.0755 33.4512 46.9672 32.9984 46.8589 32.5455C48.7002 32.2058 50 30.6208 50 28.6961Z" fill="white"/>
<path d="M47.9421 27.2242C48.0504 27.6771 48.1587 28.13 48.1587 28.6961C48.1587 30.9604 46.4257 32.8851 44.1511 32.8851C43.2846 32.8851 42.5265 32.6587 41.8766 32.2058V32.4323C41.8766 34.6966 40.1436 36.6213 37.869 36.6213C36.6776 36.6213 35.5944 36.0552 34.8363 35.1495C34.1864 36.6213 32.8866 37.5271 31.2619 37.5271C29.6372 37.5271 28.3375 36.5081 27.6876 35.1495C26.9294 36.0552 25.8463 36.6213 24.6549 36.6213C22.4886 36.6213 20.6473 34.8098 20.6473 32.4323V32.2058C19.9974 32.6587 19.2392 32.8851 18.3727 32.8851C16.2065 32.8851 14.3652 31.0736 14.3652 28.6961C14.3652 28.13 14.4735 27.6771 14.5818 27.2242C14.0402 27.111 13.4987 26.8846 13.0654 26.6581C12.6322 27.2242 12.4155 28.0168 12.4155 28.8093C12.4155 30.734 13.8236 32.319 15.5566 32.6587C15.4483 33.1116 15.34 33.5644 15.34 34.0173C15.34 36.1684 16.9647 37.8667 19.0226 37.8667C19.7808 37.8667 20.539 37.6403 21.0805 37.1874V37.4138C21.0805 39.565 22.7052 41.2632 24.7632 41.2632C25.9546 41.2632 26.9294 40.6972 27.5793 39.9046C28.1209 41.2632 29.4206 42.169 30.937 42.169C32.4534 42.169 33.7531 41.2632 34.2947 39.9046C34.9446 40.6972 36.0277 41.2632 37.1108 41.2632C39.1688 41.2632 40.7934 39.565 40.7934 37.4138V37.1874C41.4433 37.6403 42.0932 37.8667 42.8514 37.8667C44.9093 37.8667 46.534 36.1684 46.534 34.0173C46.534 33.5644 46.4257 33.1116 46.3174 32.6587C48.0504 32.319 49.4585 30.734 49.4585 28.8093C49.4585 28.0168 49.2418 27.3374 48.8086 26.6581C48.9169 26.8846 48.4837 27.111 47.9421 27.2242Z" fill="#F0F0F0"/>
<path d="M50 28.6961C50 26.7714 48.7002 25.2995 47.0755 24.8467V24.2806C47.0755 22.1294 45.4508 20.4312 43.3929 20.4312C42.6347 20.4312 41.8765 20.6576 41.335 21.1105V20.884C41.335 18.7329 39.7103 17.0346 37.6523 17.0346C36.6775 17.0346 35.7027 17.4875 35.0528 18.1668C34.6196 16.4685 33.2115 15.3364 31.4785 15.3364C29.7455 15.3364 28.3374 16.5818 27.9042 18.1668C27.2543 17.4875 26.2795 17.0346 25.3047 17.0346C23.2467 17.0346 21.622 18.7329 21.622 20.884V21.1105C20.9722 20.6576 20.3223 20.4312 19.5641 20.4312C17.5062 20.4312 15.8815 22.1294 15.8815 24.2806V24.8467C14.1485 25.1863 12.957 26.7714 12.957 28.6961C12.957 30.6208 14.3651 32.2058 16.0981 32.5455C15.9898 32.9984 15.8815 33.4512 15.8815 33.9041C15.8815 36.0552 17.5062 37.7535 19.5641 37.7535C20.3223 37.7535 21.0805 37.5271 21.622 37.0742V37.3006C21.622 39.4518 23.2467 41.15 25.3047 41.15C26.4961 41.15 27.4709 40.5839 28.1208 39.7914C28.6624 41.15 29.9621 42.0558 31.4785 42.0558C32.9949 42.0558 34.2946 41.15 34.8362 39.7914C35.4861 40.5839 36.5692 41.15 37.6523 41.15C39.7103 41.15 41.335 39.4518 41.335 37.3006V37.0742C41.9848 37.5271 42.6347 37.7535 43.3929 37.7535C45.4508 37.7535 47.0755 36.0552 47.0755 33.9041C47.0755 33.4512 46.9672 32.9984 46.8589 32.5455C48.7002 32.2058 50 30.6208 50 28.6961V28.6961Z" stroke="#45413C" stroke-miterlimit="10" stroke-linecap="round" stroke-linejoin="round"/>
<path d="M25.8463 31.0736C26.3846 31.0736 26.8211 30.7695 26.8211 30.3943C26.8211 30.0192 26.3846 29.715 25.8463 29.715C25.3079 29.715 24.8715 30.0192 24.8715 30.3943C24.8715 30.7695 25.3079 31.0736 25.8463 31.0736Z" fill="#FFB0CA"/>
<path d="M33.9698 32.2058C34.403 32.2058 34.728 32.6587 34.6197 33.1116C34.2947 34.5834 32.995 35.7156 31.4786 35.7156C29.9622 35.7156 28.6625 34.5834 28.3375 33.1116C28.2292 32.6587 28.5541 32.2058 28.9874 32.2058H33.9698Z" fill="#FFB0CA" stroke="#45413C" stroke-miterlimit="10" stroke-linecap="round" stroke-linejoin="round"/>
<path d="M31.3703 35.6023C32.4534 35.6023 33.3199 35.0363 33.9698 34.2437C33.3199 33.7909 32.3451 33.5644 31.3703 33.5644C30.3954 33.5644 29.4206 33.7909 28.7708 34.2437C29.4206 35.0363 30.2871 35.6023 31.3703 35.6023Z" fill="#FF87AF" stroke="#45413C" stroke-miterlimit="10" stroke-linecap="round" stroke-linejoin="round"/>
<path d="M25.5214 29.0357C25.5214 28.4696 25.9546 28.0168 26.4962 28.0168C27.0377 28.0168 27.471 28.4696 27.471 29.0357" stroke="#45413C" stroke-miterlimit="10" stroke-linecap="round" stroke-linejoin="round"/>
<path d="M37.0025 31.0736C37.5409 31.0736 37.9773 30.7695 37.9773 30.3943C37.9773 30.0192 37.5409 29.715 37.0025 29.715C36.4641 29.715 36.0277 30.0192 36.0277 30.3943C36.0277 30.7695 36.4641 31.0736 37.0025 31.0736Z" fill="#FFB0CA"/>
<path d="M37.3274 29.0357C37.3274 28.4696 36.8942 28.0168 36.3526 28.0168C35.8111 28.0168 35.3778 28.4696 35.3778 29.0357" stroke="#45413C" stroke-miterlimit="10" stroke-linecap="round" stroke-linejoin="round"/>
</svg>
